<?xml version="1.0" encoding="utf-8"?>
<!-- Svg Vector Icons : http://www.onlinewebfonts.com/icon -->
<!DOCTYPE svg PUBLIC "-//W3C//DTD SVG 1.1//EN" "http://www.w3.org/Graphics/SVG/1.1/DTD/svg11.dtd">
<svg version="1.1" xmlns="http://www.w3.org/2000/svg" x="0px" y="0px" viewBox="0 0 256 256"
     enable-background="new 0 0 256 256" xml:space="preserve">
<metadata> Svg Vector Icons : http://www.onlinewebfonts.com/icon </metadata>
<g><g><g><path fill="#fff" d="M20.2,10.7c-5.2,1.8-8.2,5-9.7,10.2c-0.9,3.1-0.6,6.4,0.8,9.8c0.9,2.2,6.1,7.6,48.4,49.9l47.4,47.4l-47.4,47.4c-52.9,53-49.5,49.2-49.6,55.9c0,6,3,10.8,8.5,13.3c2.1,1,3.3,1.2,6,1.2c6.8,0,3,3.4,56-49.6l47.4-47.4l47.4,47.4c53,52.9,49.2,49.5,55.9,49.6c2.8,0,4-0.2,6-1.2c5.4-2.5,8.5-7.4,8.5-13.3c0-6.8,3.4-3-49.6-55.9L149.1,128l47.4-47.4c52.9-53,49.5-49.2,49.5-55.9c0-6-2.7-10.5-7.9-13c-2.7-1.3-3.6-1.5-6.6-1.5c-6.8,0-3-3.4-55.9,49.6L128.1,107L80.7,59.7C37.9,17,33,12.2,30.7,11.3C27.2,9.8,23.2,9.6,20.2,10.7z"/></g></g></g>
</svg>