<svg width="40" height="40" viewBox="0 0 40 40" fill="none" xmlns="http://www.w3.org/2000/svg">
<g id="File">
<path id="Vector" d="M33.3844 12.8656L24.6344 4.11563C24.5182 3.99958 24.3803 3.90756 24.2286 3.84483C24.0768 3.78209 23.9142 3.74987 23.75 3.75H8.75C8.08696 3.75 7.45107 4.01339 6.98223 4.48223C6.51339 4.95107 6.25 5.58696 6.25 6.25V33.75C6.25 34.413 6.51339 35.0489 6.98223 35.5178C7.45107 35.9866 8.08696 36.25 8.75 36.25H31.25C31.913 36.25 32.5489 35.9866 33.0178 35.5178C33.4866 35.0489 33.75 34.413 33.75 33.75V13.75C33.7501 13.5858 33.7179 13.4232 33.6552 13.2714C33.5924 13.1197 33.5004 12.9818 33.3844 12.8656ZM23.75 13.75V6.875L30.625 13.75H23.75Z" fill="#6990f2"/>
</g>
</svg>
