<?xml version="1.0" encoding="UTF-8"?>
<!DOCTYPE svg PUBLIC "-//W3C//DTD SVG 1.1//EN" "http://www.w3.org/Graphics/SVG/1.1/DTD/svg11.dtd">
<svg xmlns="http://www.w3.org/2000/svg" version="1.1" width="512px" height="512px"
     style="shape-rendering:geometricPrecision; text-rendering:geometricPrecision; image-rendering:optimizeQuality; fill-rule:evenodd; clip-rule:evenodd">
<g><path style="opacity:0.987" fill="#6990f2" d="M 511.5,123.5 C 511.5,127.833 511.5,132.167 511.5,136.5C 510.625,138.568 509.459,140.568 508,142.5C 408.5,242 309,341.5 209.5,441C 205.78,442.644 201.947,443.81 198,444.5C 194.053,443.81 190.22,442.644 186.5,441C 124.972,379.806 63.8058,318.306 3,256.5C 2.05898,254.273 0.892318,252.273 -0.5,250.5C -0.5,246.167 -0.5,241.833 -0.5,237.5C 0.409824,235.981 1.24316,234.315 2,232.5C 18.1667,216.333 34.3333,200.167 50.5,184C 59.5874,179.012 68.2541,179.678 76.5,186C 116.639,227.139 157.139,267.972 198,308.5C 277.527,228.639 357.361,149.139 437.5,70C 445.61,65.6759 453.61,66.0092 461.5,71C 477,86.5 492.5,102 508,117.5C 508.941,119.727 510.108,121.727 511.5,123.5 Z"/></g>
</svg>
